<svg xmlns="http://www.w3.org/2000/svg" viewBox="0 0 64 64">
  <defs>
    <linearGradient id="bg" x1="10" x2="54" y1="8" y2="56" gradientUnits="userSpaceOnUse">
      <stop offset="0" stop-color="#ff7a3d"/>
      <stop offset="1" stop-color="#ff4f6d"/>
    </linearGradient>
    <linearGradient id="accent" x1="38" x2="55" y1="38" y2="55" gradientUnits="userSpaceOnUse">
      <stop offset="0" stop-color="#0fb78f"/>
      <stop offset="1" stop-color="#0a8f72"/>
    </linearGradient>
  </defs>
  <rect width="64" height="64" rx="16" fill="url(#bg)"/>
  <circle cx="32" cy="29" r="18" fill="#fff7f1" opacity="0.96"/>
  <path
    d="M41 20c-3-4-7-5-11-5-7 0-11 3-11 8 0 5 4 7 10 9l3 1c5 2 7 3 7 7 0 4-4 7-10 7-5 0-9-2-12-5"
    fill="none"
    stroke="#ef5b45"
    stroke-linecap="round"
    stroke-linejoin="round"
    stroke-width="5"
  />
  <circle cx="47" cy="47" r="8" fill="url(#accent)"/>
  <path
    d="M43 47l3 3 5-6"
    fill="none"
    stroke="#ffffff"
    stroke-linecap="round"
    stroke-linejoin="round"
    stroke-width="2.8"
  />
</svg>
