<svg xmlns="http://www.w3.org/2000/svg" viewBox="0 0 960 760" role="img" aria-labelledby="title desc">
  <title id="title">Food hero illustration</title>
  <desc id="desc">Colorful illustrated Nepali and Indian meal spread with momo, thali, paneer dishes, and lassi for the food delivery page</desc>
  <defs>
    <linearGradient id="bg" x1="110" x2="860" y1="60" y2="680" gradientUnits="userSpaceOnUse">
      <stop offset="0" stop-color="#fff2df"/>
      <stop offset="0.5" stop-color="#ffe2cc"/>
      <stop offset="1" stop-color="#ffd3da"/>
    </linearGradient>
    <linearGradient id="plate" x1="250" x2="720" y1="160" y2="610" gradientUnits="userSpaceOnUse">
      <stop offset="0" stop-color="#ffffff"/>
      <stop offset="1" stop-color="#fff4ef"/>
    </linearGradient>
    <linearGradient id="thali" x1="250" x2="460" y1="320" y2="520" gradientUnits="userSpaceOnUse">
      <stop offset="0" stop-color="#ffb54c"/>
      <stop offset="1" stop-color="#ff7a33"/>
    </linearGradient>
    <linearGradient id="momo" x1="500" x2="720" y1="260" y2="470" gradientUnits="userSpaceOnUse">
      <stop offset="0" stop-color="#fff8f0"/>
      <stop offset="1" stop-color="#ffe0cb"/>
    </linearGradient>
    <linearGradient id="paneerPlate" x1="270" x2="710" y1="450" y2="620" gradientUnits="userSpaceOnUse">
      <stop offset="0" stop-color="#ffd35f"/>
      <stop offset="1" stop-color="#ff9447"/>
    </linearGradient>
    <filter id="shadow" x="-20%" y="-20%" width="140%" height="140%">
      <feDropShadow dx="0" dy="18" stdDeviation="20" flood-color="#d37b53" flood-opacity="0.18"/>
    </filter>
  </defs>
  <rect width="960" height="760" rx="44" fill="url(#bg)"/>
  <circle cx="760" cy="160" r="84" fill="#fff2a8" opacity="0.58"/>
  <circle cx="182" cy="130" r="46" fill="#ff9f78" opacity="0.34"/>
  <circle cx="834" cy="600" r="110" fill="#ff8ea3" opacity="0.25"/>
  <g filter="url(#shadow)">
    <rect x="136" y="108" width="688" height="520" rx="42" fill="url(#plate)"/>
  </g>
  <g transform="translate(0 10)">
    <ellipse cx="330" cy="378" rx="134" ry="112" fill="#fff7ee"/>
    <path d="M244 370c14-48 47-76 88-76 45 0 76 22 94 76z" fill="url(#thali)"/>
    <rect x="232" y="364" width="196" height="28" rx="14" fill="#2f7f46"/>
    <rect x="246" y="392" width="166" height="24" rx="12" fill="#6a3d2e"/>
    <rect x="238" y="416" width="184" height="30" rx="15" fill="#f6c163"/>
    <circle cx="278" cy="333" r="5" fill="#fff0b0"/>
    <circle cx="334" cy="320" r="5" fill="#fff0b0"/>
    <circle cx="378" cy="340" r="5" fill="#fff0b0"/>
  </g>
  <g transform="translate(0 -4)">
    <ellipse cx="624" cy="350" rx="138" ry="106" fill="#fff6ef"/>
    <g fill="url(#momo)">
      <path d="M550 370c0-34 27-60 62-60 36 0 61 25 61 60-24-8-41-12-61-12-19 0-38 4-62 12z"/>
      <path d="M602 296l12 28"/>
      <path d="M575 365c0-30 21-51 49-51 30 0 50 20 50 51-19-7-34-10-50-10-16 0-31 3-49 10z" opacity="0.88"/>
      <path d="M642 372c0-28 22-50 52-50 30 0 50 21 50 50-17-7-34-11-50-11s-32 4-52 11z"/>
      <path d="M513 395c0-27 22-48 50-48 30 0 50 20 50 48-18-7-33-10-50-10-16 0-32 3-50 10z"/>
    </g>
    <ellipse cx="621" cy="430" rx="52" ry="22" fill="#da3f31"/>
    <ellipse cx="621" cy="430" rx="34" ry="12" fill="#ff7f65"/>
  </g>
  <g>
    <ellipse cx="490" cy="540" rx="206" ry="70" fill="#fff2e1"/>
    <path d="M312 520c54-30 98-42 180-42 76 0 126 11 178 40-48 24-109 38-177 38-72 0-133-13-181-36z" fill="url(#paneerPlate)"/>
    <path d="M332 500c50 28 102 42 158 42 64 0 120-14 164-40" fill="none" stroke="#ffcb4d" stroke-linecap="round" stroke-width="10"/>
    <path d="M356 482c45 28 93 40 141 40 58 0 111-13 151-35" fill="none" stroke="#ffbf35" stroke-linecap="round" stroke-width="10"/>
    <circle cx="372" cy="486" r="10" fill="#49a34b"/>
    <circle cx="438" cy="458" r="10" fill="#e94949"/>
    <circle cx="548" cy="466" r="10" fill="#49a34b"/>
    <circle cx="620" cy="490" r="10" fill="#e94949"/>
  </g>
  <g transform="translate(704 184)">
    <rect x="0" y="0" width="88" height="172" rx="28" fill="#ff8f5a"/>
    <rect x="14" y="30" width="60" height="104" rx="22" fill="#ffd36d"/>
    <path d="M44 -10v36" fill="none" stroke="#ffffff" stroke-linecap="round" stroke-width="10"/>
    <path d="M18 84h52" fill="none" stroke="#ffffff" stroke-linecap="round" stroke-width="8" opacity="0.5"/>
  </g>
  <g transform="translate(176 514)">
    <circle cx="0" cy="0" r="28" fill="#ff6b57"/>
    <circle cx="54" cy="18" r="20" fill="#ffc94d"/>
    <circle cx="108" cy="-6" r="24" fill="#24a77b"/>
  </g>
</svg>
