<svg xmlns="http://www.w3.org/2000/svg" viewBox="0 0 120 120" role="img" aria-labelledby="title desc">
  <title id="title">Sazilo Sewa Logo</title>
  <desc id="desc">Friendly rounded app logo with a flowing S and a service check mark</desc>
  <defs>
    <linearGradient id="bg" x1="18" x2="102" y1="12" y2="108" gradientUnits="userSpaceOnUse">
      <stop offset="0" stop-color="#ff7a3d"/>
      <stop offset="1" stop-color="#ff4f6d"/>
    </linearGradient>
    <linearGradient id="accent" x1="72" x2="102" y1="74" y2="104" gradientUnits="userSpaceOnUse">
      <stop offset="0" stop-color="#0fb78f"/>
      <stop offset="1" stop-color="#0a8f72"/>
    </linearGradient>
  </defs>
  <rect width="120" height="120" rx="30" fill="url(#bg)"/>
  <circle cx="60" cy="56" r="34" fill="#fff7f1" opacity="0.96"/>
  <path
    d="M77 38c-5-6-12-9-21-9-12 0-21 6-21 15 0 8 7 12 18 15l6 2c9 3 13 6 13 12 0 7-7 12-18 12-8 0-16-3-22-9"
    fill="none"
    stroke="#ef5b45"
    stroke-linecap="round"
    stroke-linejoin="round"
    stroke-width="10"
  />
  <circle cx="87" cy="86" r="15" fill="url(#accent)"/>
  <path
    d="M80 86l5 5 10-12"
    fill="none"
    stroke="#ffffff"
    stroke-linecap="round"
    stroke-linejoin="round"
    stroke-width="5"
  />
</svg>
