<svg xmlns="http://www.w3.org/2000/svg" viewBox="0 0 420 280" role="img" aria-labelledby="title desc">
  <title id="title">Nepali thali meal card art</title>
  <desc id="desc">Illustrated Nepali thali with rice, dal, curry, achar, and greens</desc>
  <defs>
    <linearGradient id="bg" x1="40" x2="382" y1="20" y2="252" gradientUnits="userSpaceOnUse">
      <stop offset="0" stop-color="#fff0de"/>
      <stop offset="1" stop-color="#ffd7bb"/>
    </linearGradient>
    <linearGradient id="plate" x1="88" x2="334" y1="68" y2="226" gradientUnits="userSpaceOnUse">
      <stop offset="0" stop-color="#fffdfa"/>
      <stop offset="1" stop-color="#f8efe6"/>
    </linearGradient>
  </defs>
  <rect width="420" height="280" rx="28" fill="url(#bg)"/>
  <ellipse cx="210" cy="210" rx="142" ry="30" fill="#ecbea2" opacity="0.42"/>
  <circle cx="210" cy="142" r="92" fill="url(#plate)"/>
  <circle cx="210" cy="142" r="36" fill="#fff7df"/>
  <circle cx="210" cy="142" r="24" fill="#ffffff"/>
  <circle cx="144" cy="112" r="24" fill="#f2b65d"/>
  <circle cx="278" cy="114" r="24" fill="#d7583e"/>
  <circle cx="146" cy="176" r="24" fill="#6fae59"/>
  <circle cx="278" cy="176" r="24" fill="#f09447"/>
  <circle cx="210" cy="90" r="20" fill="#f4d25d"/>
  <circle cx="210" cy="194" r="18" fill="#d63f37"/>
  <circle cx="210" cy="194" r="10" fill="#ff8d76"/>
  <path d="M124 108c8 8 15 16 20 24M268 104c-8 8-15 16-18 24" fill="none" stroke="#fff1d0" stroke-linecap="round" stroke-width="4"/>
</svg>
