<svg xmlns="http://www.w3.org/2000/svg" viewBox="0 0 420 280" role="img" aria-labelledby="title desc">
  <title id="title">Momo meal card art</title>
  <desc id="desc">Illustrated momo dumplings with achar and fresh coriander</desc>
  <defs>
    <linearGradient id="bg" x1="40" x2="390" y1="20" y2="250" gradientUnits="userSpaceOnUse">
      <stop offset="0" stop-color="#fff6ed"/>
      <stop offset="1" stop-color="#ffd7cb"/>
    </linearGradient>
    <linearGradient id="momo" x1="120" x2="290" y1="82" y2="190" gradientUnits="userSpaceOnUse">
      <stop offset="0" stop-color="#fffdf9"/>
      <stop offset="1" stop-color="#ffd8bf"/>
    </linearGradient>
  </defs>
  <rect width="420" height="280" rx="28" fill="url(#bg)"/>
  <ellipse cx="210" cy="200" rx="150" ry="34" fill="#ebb9ab" opacity="0.4"/>
  <ellipse cx="210" cy="162" rx="126" ry="72" fill="#fff8f2"/>
  <g fill="url(#momo)">
    <path d="M118 174c0-38 30-66 69-66 41 0 69 27 69 66-26-8-45-13-69-13s-44 5-69 13z"/>
    <path d="M191 95l10 25"/>
    <path d="M192 184c0-34 25-59 58-59 35 0 59 24 59 59-23-9-39-12-59-12s-37 4-58 12z" opacity="0.92"/>
    <path d="M86 194c0-30 24-53 56-53 34 0 56 22 56 53-20-8-37-11-56-11s-36 4-56 11z" opacity="0.92"/>
  </g>
  <g transform="translate(278 170)">
    <circle cx="0" cy="0" r="34" fill="#d64133"/>
    <circle cx="0" cy="0" r="20" fill="#ff7c61"/>
  </g>
  <circle cx="96" cy="110" r="10" fill="#43aa56"/>
  <circle cx="324" cy="104" r="10" fill="#43aa56"/>
  <circle cx="336" cy="214" r="8" fill="#43aa56"/>
</svg>
