<svg xmlns="http://www.w3.org/2000/svg" viewBox="0 0 420 280" role="img" aria-labelledby="title desc">
  <title id="title">Paneer tikka plate art</title>
  <desc id="desc">Illustrated paneer tikka plate with naan, chutney, and masala onion sides</desc>
  <defs>
    <linearGradient id="bg" x1="34" x2="390" y1="18" y2="248" gradientUnits="userSpaceOnUse">
      <stop offset="0" stop-color="#fff7e8"/>
      <stop offset="1" stop-color="#ffe1bf"/>
    </linearGradient>
    <linearGradient id="plate" x1="92" x2="328" y1="70" y2="224" gradientUnits="userSpaceOnUse">
      <stop offset="0" stop-color="#fffdfa"/>
      <stop offset="1" stop-color="#f6eee4"/>
    </linearGradient>
  </defs>
  <rect width="420" height="280" rx="28" fill="url(#bg)"/>
  <ellipse cx="210" cy="210" rx="140" ry="28" fill="#eac09b" opacity="0.42"/>
  <ellipse cx="210" cy="146" rx="126" ry="86" fill="url(#plate)"/>
  <g>
    <rect x="138" y="94" width="32" height="32" rx="10" fill="#f28f47"/>
    <rect x="174" y="106" width="32" height="32" rx="10" fill="#e36d3d"/>
    <rect x="212" y="94" width="32" height="32" rx="10" fill="#f7b253"/>
    <rect x="248" y="108" width="32" height="32" rx="10" fill="#df613b"/>
    <rect x="154" y="144" width="32" height="32" rx="10" fill="#ea7a42"/>
    <rect x="194" y="152" width="32" height="32" rx="10" fill="#f7b253"/>
    <rect x="234" y="146" width="32" height="32" rx="10" fill="#eb8b49"/>
  </g>
  <path d="M102 188c22-48 64-62 96-56-16 24-16 54-2 88-38 2-70-8-94-32z" fill="#f4d39a"/>
  <path d="M296 120c22 0 40 18 40 40-16 8-32 12-48 12-8 0-16-1-24-3 0-28 14-49 32-49z" fill="#77b35c"/>
  <circle cx="300" cy="198" r="18" fill="#d64838"/>
  <circle cx="300" cy="198" r="10" fill="#ff8f6e"/>
</svg>
